<?xml version="1.0" encoding="UTF-8" standalone="no"?>
<svg version="1.1" xmlns="http://www.w3.org/2000/svg" xmlns:xlink="http://www.w3.org/1999/xlink" width="668.16" height="578.88" viewBox="0 0 668.16 578.88">
	<g id="dp_dp001">
		<path id="dp_path002" fill="#323232" fill-rule="evenodd" d="M 76.292,52.9133 L 76.292,578.656 L 78.292,578.656 L 78.292,52.9133 Z "/>
		<path id="dp_path003" fill="#323232" fill-rule="evenodd" stroke="#323232" stroke-width="1.06667" d="M 77.284,59.744 L 85.284,67.744 L 77.284,39.744 L 69.284,67.744 Z "/>
		<path id="dp_path004" fill="#323232" fill-rule="evenodd" d="M 625.564,540.581 L 48.7227,540.581 L 48.7227,542.581 L 625.564,542.581 Z "/>
		<path id="dp_path005" fill="#323232" fill-rule="evenodd" stroke="#323232" stroke-width="1.06667" d="M 610.733,541.573 L 602.733,549.573 L 630.733,541.573 L 602.733,533.573 Z "/>
		<path id="dp_path006" fill="none" fill-rule="evenodd" stroke="black" stroke-width="4" d="M 92.9613,573.765 C 124.316,477.739 279.117,113.233 398.675,113.233 C 459.452,113.233 524.096,158.307 573.089,240.615"/>
		<path id="dp_path007" fill="#ffa06d" fill-rule="evenodd" fill-opacity="0.490196" stroke="#ff3d3c" stroke-width="2" stroke-linecap="square" d="M 189.327,248.384 L 306.909,248.384 L 306.909,541.585 L 189.327,541.585 Z "/>
		<path id="dp_path008" fill="#ffa06d" fill-rule="evenodd" fill-opacity="0.490196" stroke="#ff3d3c" stroke-width="2" stroke-linecap="square" d="M 306.909,121.725 L 424.492,121.725 L 424.492,541.579 L 306.909,541.579 Z "/>
		<path id="dp_path009" fill="#ffa06d" fill-rule="evenodd" fill-opacity="0.490196" stroke="#ff3d3c" stroke-width="2" stroke-linecap="square" d="M 424.485,141.809 L 542.068,141.809 L 542.068,541.579 L 424.485,541.579 Z "/>
		<path id="dp_path010" fill="black" d="M 252.404,248.636 C 252.404,248.636 252.404,248.636 252.404,248.636 C 252.404,251.26 250.245,253.417 247.623,253.417 C 244.999,253.417 242.841,251.26 242.841,248.636 C 242.841,248.636 242.841,248.636 242.841,248.636 C 242.841,248.636 242.841,248.636 242.841,248.636 C 242.841,246.013 244.999,243.856 247.623,243.856 C 250.245,243.856 252.404,246.013 252.404,248.636 C 252.404,248.636 252.404,248.636 252.404,248.636 Z "/>
		<path id="dp_path011" fill="black" d="M 371.279,121.668 C 371.279,121.668 371.279,121.668 371.279,121.668 C 371.279,124.291 369.12,126.449 366.497,126.449 C 363.873,126.449 361.716,124.291 361.716,121.668 C 361.716,121.668 361.716,121.668 361.716,121.668 C 361.716,121.668 361.716,121.668 361.716,121.668 C 361.716,119.044 363.873,116.887 366.497,116.887 C 369.12,116.887 371.279,119.044 371.279,121.668 C 371.279,121.668 371.279,121.668 371.279,121.668 Z "/>
		<path id="dp_path012" fill="black" d="M 488.623,141.575 C 488.623,141.575 488.623,141.575 488.623,141.575 C 488.623,144.197 486.464,146.355 483.841,146.355 C 481.217,146.355 479.06,144.197 479.06,141.575 C 479.06,141.575 479.06,141.575 479.06,141.575 C 479.06,141.575 479.06,141.575 479.06,141.575 C 479.06,138.951 481.217,136.793 483.841,136.793 C 486.464,136.793 488.623,138.951 488.623,141.575 C 488.623,141.575 488.623,141.575 488.623,141.575 Z "/>
	</g>
	<text id="dp_text001" transform="matrix(1,0,0,1,650.191,549.033)" xml:space="preserve" fill="black" font-family="Times New Roman" font-size="40" font-weight="400" font-style="italic" x="0" y="0">x</text>
	<text id="dp_text002" transform="matrix(1,0,0,1,69.9068,17.6758)" xml:space="preserve" fill="black" font-family="Times New Roman" font-size="40" font-weight="400" font-style="italic" x="0" y="0">y</text>
	<path id="dp_path015" fill="none" fill-rule="evenodd" stroke="black" stroke-width="1" stroke-dasharray="6,2" d="M 247.601,541.721 L 247.601,249.085 L 76.424,249.085"/>
	<text id="dp_text003" transform="matrix(1,0,0,1,236.004,569.502)" xml:space="preserve" fill="black" font-family="Times New Roman" font-size="40" font-weight="400" font-style="italic" x="0" y="0">x</text>
	<text id="dp_text004" transform="matrix(1,0,0,1,253.777,569.502)" xml:space="preserve" fill="black" font-family="Times New Roman" font-size="24" font-weight="400" font-style="italic" x="0" y="0">i</text>
	<text id="dp_text005" transform="matrix(1,0,0,1,6.97211,257.945)" xml:space="preserve" fill="black" font-family="Times New Roman" font-size="40" font-weight="400" font-style="italic" x="0" y="0">f</text>
	<text id="dp_text006" transform="matrix(1,0,0,1,18.1054,257.945)" xml:space="preserve" fill="black" font-family="Times New Roman" font-size="40" font-weight="400" x="0" y="0">(</text>
	<text id="dp_text007" transform="matrix(1,0,0,1,31.4254,257.945)" xml:space="preserve" fill="black" font-family="Times New Roman" font-size="40" font-weight="400" font-style="italic" x="0" y="0">x</text>
	<text id="dp_text008" transform="matrix(1,0,0,1,49.1988,257.945)" xml:space="preserve" fill="black" font-family="Times New Roman" font-size="24" font-weight="400" font-style="italic" x="0" y="0">i</text>
	<text id="dp_text009" transform="matrix(1,0,0,1,55.8788,257.945)" xml:space="preserve" fill="black" font-family="Times New Roman" font-size="40" font-weight="400" x="0" y="0">)</text>
	<g id="dp_dp023">
		<path id="dp_path024" fill="none" fill-rule="evenodd" stroke="black" stroke-width="1" d="M 307.976,479.216 L 422.331,479.216"/>
		<path id="dp_path025" fill="none" fill-rule="evenodd" stroke="black" stroke-width="1" d="M 249.568,479.216 L 304.615,479.216"/>
		<path id="dp_path026" fill="none" fill-rule="evenodd" stroke="black" stroke-width="1" d="M 190.247,479.217 L 245.293,479.217"/>
		<path id="dp_path027" fill="none" fill-rule="evenodd" stroke="black" stroke-width="1" d="M 221.747,472.683 L 214.472,485.283"/>
		<path id="dp_path028" fill="none" fill-rule="evenodd" stroke="black" stroke-width="1" d="M 281.887,472.912 L 274.612,485.512"/>
	</g>
	<text id="dp_text010" transform="matrix(1,0,0,1,343.379,463.521)" xml:space="preserve" fill="black" font-family="Symbol" font-size="40" font-weight="400" x="0" y="0"></text>
	<text id="dp_text011" transform="matrix(1,0,0,1,367.806,463.521)" xml:space="preserve" fill="black" font-family="Times New Roman" font-size="40" font-weight="400" font-style="italic" x="0" y="0">x</text>
	<g id="dp_dp031">
		<path id="dp_path032" fill="none" fill-rule="evenodd" stroke="black" stroke-width="2.66667" d="M 236.004,547.584 L 255.215,547.584"/>
		<path id="dp_path033" fill="none" fill-rule="evenodd" stroke="black" stroke-width="2.66667" d="M 33.5573,233.943 L 52.768,233.943"/>
	</g>
	<g id="dp_dp034" transform="matrix(1,0,0,1,514.831,116.103)">
		<text id="dp_text012" xml:space="preserve" fill="black" font-family="Times New Roman" font-size="40" font-weight="400" font-style="italic" x="0" y="0">y</text>
		<text id="dp_text013" xml:space="preserve" fill="black" font-family="Times New Roman" font-size="40" font-weight="400" x="17.7067" y="0">=</text>
		<text id="dp_text014" xml:space="preserve" fill="black" font-family="Times New Roman" font-size="40" font-weight="400" font-style="italic" x="40.2133" y="0">f</text>
		<text id="dp_text015" xml:space="preserve" fill="black" font-family="Times New Roman" font-size="40" font-weight="400" x="51.3067" y="0">(</text>
		<text id="dp_text016" xml:space="preserve" fill="black" font-family="Times New Roman" font-size="40" font-weight="400" font-style="italic" x="64.64" y="0">x</text>
		<text id="dp_text017" xml:space="preserve" fill="black" font-family="Times New Roman" font-size="40" font-weight="400" x="82.3467" y="0">)</text>
	</g>
</svg>